<svg width="1134" height="298" viewBox="0 0 1134 298" fill="none" xmlns="http://www.w3.org/2000/svg">
<path d="M290.302 272.948C287.046 272.948 284.308 271.838 282.088 269.618C280.016 267.546 278.98 264.882 278.98 261.626V160.394C279.128 148.702 281.866 138.194 287.194 128.87C292.522 119.546 299.774 112.22 308.95 106.892C318.126 101.416 328.486 98.678 340.03 98.678C351.722 98.678 362.156 101.416 371.332 106.892C380.508 112.22 387.76 119.546 393.088 128.87C398.564 138.194 401.302 148.702 401.302 160.394C401.302 172.086 398.786 182.594 393.754 191.918C388.87 201.094 382.136 208.42 373.552 213.896C364.968 219.224 355.274 221.888 344.47 221.888C335.738 221.888 327.672 220.112 320.272 216.56C313.02 212.86 306.804 207.902 301.624 201.686V261.626C301.624 264.882 300.588 267.546 298.516 269.618C296.444 271.838 293.706 272.948 290.302 272.948ZM340.03 201.908C347.578 201.908 354.312 200.132 360.232 196.58C366.152 192.88 370.814 187.922 374.218 181.706C377.77 175.342 379.546 168.238 379.546 160.394C379.546 152.402 377.77 145.298 374.218 139.082C370.814 132.718 366.152 127.76 360.232 124.208C354.312 120.508 347.578 118.658 340.03 118.658C332.63 118.658 325.896 120.508 319.828 124.208C313.908 127.76 309.246 132.718 305.842 139.082C302.438 145.298 300.736 152.402 300.736 160.394C300.736 168.238 302.438 175.342 305.842 181.706C309.246 187.922 313.908 192.88 319.828 196.58C325.896 200.132 332.63 201.908 340.03 201.908ZM450.614 221C444.102 221 438.33 219.224 433.298 215.672C428.266 212.12 424.344 207.31 421.532 201.242C418.72 195.026 417.314 187.922 417.314 179.93V58.718C417.314 55.462 418.35 52.798 420.422 50.726C422.494 48.654 425.158 47.618 428.414 47.618C431.67 47.618 434.334 48.654 436.406 50.726C438.478 52.798 439.514 55.462 439.514 58.718V179.93C439.514 185.406 440.55 189.92 442.622 193.472C444.694 197.024 447.358 198.8 450.614 198.8H456.164C459.124 198.8 461.492 199.836 463.268 201.908C465.192 203.98 466.154 206.644 466.154 209.9C466.154 213.156 464.748 215.82 461.936 217.892C459.124 219.964 455.498 221 451.058 221H450.614ZM526.05 222.11C515.838 222.11 506.662 219.964 498.522 215.672C490.53 211.232 484.166 204.794 479.43 196.358C474.842 187.922 472.548 177.562 472.548 165.278V110.666C472.548 107.41 473.584 104.746 475.656 102.674C477.876 100.454 480.614 99.344 483.87 99.344C487.126 99.344 489.79 100.454 491.862 102.674C494.082 104.746 495.192 107.41 495.192 110.666V165.278C495.192 173.566 496.746 180.448 499.854 185.924C502.962 191.252 507.18 195.248 512.508 197.912C517.836 200.428 523.83 201.686 530.49 201.686C536.854 201.686 542.478 200.428 547.362 197.912C552.394 195.396 556.39 191.992 559.35 187.7C562.31 183.408 563.79 178.598 563.79 173.27H577.776C577.776 182.446 575.482 190.734 570.894 198.134C566.454 205.534 560.312 211.38 552.468 215.672C544.772 219.964 535.966 222.11 526.05 222.11ZM575.112 221C571.856 221 569.118 219.964 566.898 217.892C564.826 215.672 563.79 212.934 563.79 209.678V110.666C563.79 107.262 564.826 104.524 566.898 102.452C569.118 100.38 571.856 99.344 575.112 99.344C578.516 99.344 581.254 100.38 583.326 102.452C585.398 104.524 586.434 107.262 586.434 110.666V209.678C586.434 212.934 585.398 215.672 583.326 217.892C581.254 219.964 578.516 221 575.112 221ZM619.433 224.552C615.289 224.552 611.663 223.072 608.555 220.112C605.595 217.004 604.115 213.378 604.115 209.234C604.115 204.942 605.595 201.316 608.555 198.356C611.663 195.248 615.289 193.694 619.433 193.694C623.725 193.694 627.351 195.248 630.311 198.356C633.271 201.316 634.751 204.942 634.751 209.234C634.751 213.378 633.271 217.004 630.311 220.112C627.351 223.072 623.725 224.552 619.433 224.552ZM707.629 221.888C695.789 221.888 685.207 219.224 675.883 213.896C666.707 208.42 659.455 201.094 654.127 191.918C648.947 182.594 646.357 172.086 646.357 160.394C646.357 148.406 648.947 137.75 654.127 128.426C659.307 119.102 666.411 111.85 675.439 106.67C684.467 101.342 694.827 98.678 706.519 98.678C715.251 98.678 723.243 100.38 730.495 103.784C737.747 107.04 744.259 111.998 750.031 118.658C752.103 121.026 752.843 123.468 752.251 125.984C751.659 128.5 750.031 130.72 747.367 132.644C745.295 134.124 743.001 134.642 740.485 134.198C737.969 133.606 735.675 132.274 733.603 130.202C726.351 122.506 717.323 118.658 706.519 118.658C698.971 118.658 692.311 120.434 686.539 123.986C680.767 127.39 676.253 132.2 672.997 138.416C669.741 144.632 668.113 151.958 668.113 160.394C668.113 168.386 669.741 175.49 672.997 181.706C676.401 187.922 681.063 192.88 686.983 196.58C692.903 200.132 699.785 201.908 707.629 201.908C712.809 201.908 717.323 201.316 721.171 200.132C725.167 198.8 728.793 196.802 732.049 194.138C734.417 192.214 736.859 191.178 739.375 191.03C741.891 190.734 744.111 191.4 746.035 193.028C748.551 195.1 749.957 197.468 750.253 200.132C750.549 202.648 749.661 204.942 747.589 207.014C736.933 216.93 723.613 221.888 707.629 221.888ZM783.905 176.822C780.649 176.822 777.911 175.786 775.691 173.714C773.619 171.494 772.583 168.756 772.583 165.5V58.94C772.583 55.536 773.619 52.798 775.691 50.726C777.911 48.654 780.649 47.618 783.905 47.618C787.309 47.618 790.047 48.654 792.119 50.726C794.191 52.798 795.227 55.536 795.227 58.94V165.5C795.227 168.756 794.191 171.494 792.119 173.714C790.047 175.786 787.309 176.822 783.905 176.822ZM875.147 221.222C871.891 221.222 869.153 220.186 866.933 218.114C864.861 215.894 863.825 213.156 863.825 209.9V155.288C863.825 146.852 862.271 139.97 859.163 134.642C856.055 129.314 851.837 125.392 846.509 122.876C841.329 120.212 835.335 118.88 828.527 118.88C822.311 118.88 816.687 120.138 811.655 122.654C806.623 125.17 802.627 128.574 799.667 132.866C796.707 137.01 795.227 141.82 795.227 147.296H781.241C781.241 137.972 783.461 129.684 787.901 122.432C792.489 115.032 798.705 109.186 806.549 104.894C814.393 100.602 823.199 98.456 832.967 98.456C843.179 98.456 852.281 100.676 860.273 105.116C868.413 109.408 874.777 115.772 879.365 124.208C884.101 132.644 886.469 143.004 886.469 155.288V209.9C886.469 213.156 885.359 215.894 883.139 218.114C881.067 220.186 878.403 221.222 875.147 221.222ZM783.905 221.222C780.649 221.222 777.911 220.186 775.691 218.114C773.619 215.894 772.583 213.156 772.583 209.9V110.888C772.583 107.484 773.619 104.746 775.691 102.674C777.911 100.602 780.649 99.566 783.905 99.566C787.309 99.566 790.047 100.602 792.119 102.674C794.191 104.746 795.227 107.484 795.227 110.888V209.9C795.227 213.156 794.191 215.894 792.119 218.114C790.047 220.186 787.309 221.222 783.905 221.222ZM961.42 221.888C950.616 221.888 940.922 219.224 932.338 213.896C923.754 208.42 916.946 201.094 911.914 191.918C907.03 182.594 904.588 172.086 904.588 160.394C904.588 148.702 907.252 138.194 912.58 128.87C918.056 119.546 925.382 112.22 934.558 106.892C943.882 101.416 954.316 98.678 965.86 98.678C977.404 98.678 987.764 101.416 996.94 106.892C1006.12 112.22 1013.37 119.546 1018.7 128.87C1024.17 138.194 1026.91 148.702 1026.91 160.394H1018.25C1018.25 172.086 1015.74 182.594 1010.7 191.918C1005.82 201.094 999.086 208.42 990.502 213.896C981.918 219.224 972.224 221.888 961.42 221.888ZM965.86 201.908C973.408 201.908 980.142 200.132 986.062 196.58C991.982 192.88 996.644 187.922 1000.05 181.706C1003.45 175.342 1005.15 168.238 1005.15 160.394C1005.15 152.402 1003.45 145.298 1000.05 139.082C996.644 132.718 991.982 127.76 986.062 124.208C980.142 120.508 973.408 118.658 965.86 118.658C958.46 118.658 951.726 120.508 945.658 124.208C939.738 127.76 935.002 132.718 931.45 139.082C928.046 145.298 926.344 152.402 926.344 160.394C926.344 168.238 928.046 175.342 931.45 181.706C935.002 187.922 939.738 192.88 945.658 196.58C951.726 200.132 958.46 201.908 965.86 201.908ZM1015.59 221.222C1012.33 221.222 1009.59 220.186 1007.37 218.114C1005.3 215.894 1004.27 213.156 1004.27 209.9V175.934L1008.48 152.402L1026.91 160.394V209.9C1026.91 213.156 1025.8 215.894 1023.58 218.114C1021.51 220.186 1018.84 221.222 1015.59 221.222ZM1091.47 221C1084.07 221 1077.41 219.15 1071.49 215.45C1065.57 211.602 1060.91 206.422 1057.5 199.91C1054.1 193.398 1052.4 186.072 1052.4 177.932V72.038C1052.4 68.782 1053.43 66.118 1055.5 64.046C1057.58 61.974 1060.24 60.938 1063.5 60.938C1066.75 60.938 1069.42 61.974 1071.49 64.046C1073.56 66.118 1074.6 68.782 1074.6 72.038V177.932C1074.6 183.852 1076.22 188.81 1079.48 192.806C1082.74 196.802 1086.73 198.8 1091.47 198.8H1099.02C1101.68 198.8 1103.9 199.836 1105.68 201.908C1107.6 203.98 1108.56 206.644 1108.56 209.9C1108.56 213.156 1107.3 215.82 1104.79 217.892C1102.42 219.964 1099.31 221 1095.46 221H1091.47ZM1042.18 123.098C1039.08 123.098 1036.56 122.21 1034.64 120.434C1032.71 118.658 1031.75 116.438 1031.75 113.774C1031.75 110.814 1032.71 108.446 1034.64 106.67C1036.56 104.894 1039.08 104.006 1042.18 104.006H1093.47C1096.57 104.006 1099.09 104.894 1101.01 106.67C1102.94 108.446 1103.9 110.814 1103.9 113.774C1103.9 116.438 1102.94 118.658 1101.01 120.434C1099.09 122.21 1096.57 123.098 1093.47 123.098H1042.18Z" fill="#1E1E1E"/>
<path d="M33.5888 217.149H64.0888C69.6888 247.149 95.4222 255.315 107.589 255.649C143.189 255.649 154.756 229.982 156.089 217.149H185.589C193.189 215.949 193.422 222.315 192.589 225.649C185.789 284.049 133.089 297.315 107.589 296.649C45.5889 293.849 28.0888 248.149 27.0888 225.649C26.2888 219.249 31.0888 217.315 33.5888 217.149Z" fill="#1E1E1E" stroke="#282826"/>
<circle cx="110" cy="90" r="66" stroke="#282826" stroke-width="46"/>
<path d="M183.5 44.5H113V1H218V12.5C217.2 36.9 194.667 44 183.5 44.5Z" fill="#1E1E1E" stroke="#282826"/>
<path d="M203.214 203H173V179H218V185.345C217.657 198.807 208 202.724 203.214 203Z" fill="#1E1E1E" stroke="#282826"/>
<path d="M15.7857 203H46V179H1V185.345C1.34286 198.807 11 202.724 15.7857 203Z" fill="#1E1E1E" stroke="#282826"/>
</svg>
